<svg width="110" height="237" viewBox="0 0 110 237" fill="none" xmlns="http://www.w3.org/2000/svg">
<path d="M36.8425 201.547V210.836C36.8425 210.836 38.0732 215.536 28.222 218C18.3709 220.464 13.1125 220.348 13.2254 226.84L18.261 227.12C18.261 227.12 17.5327 229.471 22.9071 228.24C22.9071 228.24 27.0479 227.399 27.4403 227.569C27.4403 227.569 26.6169 229.085 31.3938 228.597C31.3938 228.597 42.3923 227.569 48.0402 223.247C48.0402 223.247 49.4403 221.166 46.6996 218.713C46.6996 218.713 44.0688 217.706 44.2353 212.221C44.4018 206.737 44.6842 200.135 44.6842 200.135L36.8425 201.547Z" fill="#FFA103"/>
<path d="M77.646 201.547V210.836C77.646 210.836 76.4154 215.536 86.2665 218C96.1176 220.464 101.373 220.348 101.263 226.84L96.2246 227.12C96.2246 227.12 96.9529 229.471 91.5815 228.24C91.5815 228.24 87.4407 227.399 87.0483 227.569C87.0483 227.569 87.8687 229.085 83.0948 228.597C83.0948 228.597 72.0962 227.569 66.4483 223.247C66.4483 223.247 65.0512 221.166 67.7919 218.713C67.7919 218.713 70.4227 217.706 70.2532 212.221C70.0838 206.737 69.8074 200.135 69.8074 200.135L77.646 201.547Z" fill="#FFA103"/>
<path d="M56.9872 199.979H49.5557C45.2277 203.374 40.2486 202.497 40.2486 202.497C30.9028 203.335 28.0611 198.597 28.0611 198.597L28.2097 194.046L23.51 183.975C17.8027 178.378 19.4049 166.514 19.4049 166.514L32.4634 130.811L56.7226 131.066" fill="#6188AC"/>
<path d="M56.9874 199.979H64.4188C68.7469 203.374 73.7259 202.497 73.7259 202.497C83.0717 203.335 85.9135 198.597 85.9135 198.597L85.7619 194.061L90.4615 183.99C96.1688 178.392 94.5666 166.529 94.5666 166.529L103.11 163.396C98.6331 146.494 81.5081 130.825 81.5081 130.825L56.7466 131.081" fill="#6188AC"/>
<path fill-rule="evenodd" clip-rule="evenodd" d="M47.103 136.178C47.3533 136.251 47.4975 136.513 47.4251 136.763C47.425 136.763 47.4251 136.763 47.4251 136.763L46.9716 136.632C47.425 136.763 47.425 136.763 47.4251 136.763M47.2855 141.085H49.6469C49.8685 141.085 50.0603 141.24 50.1079 141.456C50.1556 141.672 50.0463 141.893 49.8452 141.986C49.8452 141.986 49.8452 141.986 49.8452 141.986L49.6469 141.557V142.03H47.8691H46.9716C46.7903 142.03 46.6251 141.926 46.5463 141.763C46.0397 140.712 46.0545 139.367 46.1679 138.349C46.2259 137.829 46.3128 137.369 46.385 137.04C46.4212 136.875 46.4539 136.742 46.4779 136.65C46.4898 136.603 46.4996 136.567 46.5065 136.542L46.5147 136.512L46.517 136.504L46.5177 136.502L46.518 136.501C46.518 136.501 46.5181 136.5 46.9675 136.631L46.5181 136.5C46.5907 136.25 46.8526 136.106 47.103 136.178M47.2622 145.555C46.9469 145.135 46.6984 144.67 46.5258 144.174L46.5224 144.164C46.3578 143.656 46.6207 143.195 46.8819 142.882C47.1469 142.565 47.514 142.273 47.8691 142.03M47.2622 145.555C47.7113 146.189 47.9881 146.928 48.0654 147.701L48.0657 147.704C48.4101 150.935 49.2133 158.939 49.6685 167.338C50.1251 175.76 50.2265 184.503 49.1944 189.253C49.1391 189.508 49.3008 189.759 49.5556 189.815C49.8103 189.87 50.0618 189.708 50.1171 189.454C51.1808 184.558 51.0667 175.686 50.6114 167.287C50.1549 158.866 49.35 150.844 49.0047 147.606C48.9107 146.668 48.5742 145.771 48.0282 145.003C48.0256 144.999 48.023 144.995 48.0203 144.992C47.7636 144.651 47.5611 144.273 47.4199 143.871C47.4122 143.842 47.4046 143.729 47.6063 143.488C47.7991 143.257 48.1019 143.012 48.4447 142.78C48.782 142.551 49.1329 142.352 49.4019 142.209C49.5358 142.138 49.648 142.082 49.7261 142.043C49.7652 142.024 49.7956 142.009 49.816 142L49.8387 141.989L49.844 141.986L49.8452 141.986" fill="#35506F"/>
<path fill-rule="evenodd" clip-rule="evenodd" d="M65.7674 136.178C66.0178 136.106 66.2797 136.25 66.3523 136.5L65.8988 136.632C66.3523 136.5 66.3522 136.5 66.3523 136.5L66.3524 136.501L66.3534 136.504L66.3557 136.512L66.3639 136.542C66.3708 136.567 66.3806 136.603 66.3925 136.65C66.4164 136.742 66.4492 136.875 66.4854 137.04C66.5576 137.369 66.6444 137.829 66.7024 138.349C66.8159 139.367 66.8307 140.712 66.3241 141.763C66.2453 141.926 66.0801 142.03 65.8988 142.03H65.0024C65.3577 142.273 65.7249 142.565 65.9898 142.882C66.251 143.195 66.5138 143.657 66.3476 144.165L66.3439 144.176C66.169 144.671 65.9199 145.136 65.6051 145.555C65.1547 146.188 64.8779 146.927 64.8021 147.7L64.8017 147.704C64.4573 150.935 63.6542 158.939 63.1985 167.338C62.7416 175.76 62.6394 184.503 63.67 189.253C63.7253 189.508 63.5636 189.76 63.3087 189.815C63.0539 189.87 62.8026 189.708 62.7473 189.454C61.6852 184.558 61.8 175.686 62.2557 167.287C62.7125 158.866 63.5173 150.845 63.8626 147.606C63.955 146.668 64.2919 145.77 64.8398 145.002C64.8421 144.999 64.8444 144.995 64.8468 144.992C65.1038 144.651 65.3075 144.272 65.4509 143.869C65.4586 143.841 65.466 143.728 65.2653 143.488C65.0727 143.257 64.7698 143.012 64.4269 142.78C64.0895 142.551 63.7383 142.352 63.469 142.209C63.335 142.138 63.2228 142.082 63.1445 142.043C63.1055 142.024 63.075 142.009 63.0546 142L63.0318 141.989L63.0265 141.986L63.0255 141.986C63.0254 141.986 63.0255 141.986 63.0255 141.986C62.8243 141.893 62.7148 141.673 62.7624 141.456C62.81 141.24 63.0018 141.085 63.2235 141.085H65.5849C65.8605 140.316 65.8618 139.331 65.764 138.454C65.7106 137.974 65.6302 137.548 65.5631 137.243C65.5296 137.09 65.4997 136.968 65.4783 136.886C65.4676 136.844 65.4591 136.813 65.4534 136.792L65.447 136.769L65.4456 136.764L65.4454 136.763C65.3729 136.513 65.517 136.251 65.7674 136.178Z" fill="#35506F"/>
<path d="M52.8875 137.458C52.8875 137.458 52.9796 137.368 53.8179 150.537C54.7096 164.686 54.1151 188.815 54.1151 188.815H59.008C59.008 188.815 58.895 141.774 59.7927 137.389L52.8875 137.458Z" fill="#DEDBDA"/>
<path fill-rule="evenodd" clip-rule="evenodd" d="M84.2452 143.279C84.4059 143.073 84.7026 143.037 84.9079 143.198C86.107 144.137 87.359 146.093 88.5517 148.403C89.7567 150.738 90.9402 153.514 91.9811 156.172C93.0226 158.832 93.9247 161.382 94.5662 163.266C94.887 164.208 95.1429 164.985 95.3186 165.526C95.4064 165.796 95.4743 166.008 95.5202 166.152C95.5432 166.224 95.5607 166.28 95.5724 166.317L95.5903 166.374C95.5904 166.374 95.5904 166.374 95.1398 166.515C94.6892 166.656 94.6892 166.656 94.6892 166.656L94.672 166.601C94.6604 166.565 94.6432 166.51 94.6205 166.439C94.5751 166.296 94.5078 166.086 94.4205 165.817C94.246 165.28 93.9916 164.508 93.6724 163.57C93.0338 161.695 92.1367 159.159 91.1019 156.517C90.0664 153.872 88.8964 151.13 87.7126 148.836C86.5165 146.519 85.3443 144.739 84.3259 143.942C84.1206 143.781 84.0844 143.484 84.2452 143.279ZM95.2807 166.966C95.0318 167.043 94.767 166.905 94.6892 166.656L95.1398 166.515L95.5903 166.374C95.6681 166.623 95.5295 166.888 95.2807 166.966Z" fill="#35506F"/>
<path d="M56.4345 142.086C57.3769 142.086 58.1408 141.322 58.1408 140.38C58.1408 139.438 57.3769 138.674 56.4345 138.674C55.4922 138.674 54.7283 139.438 54.7283 140.38C54.7283 141.322 55.4922 142.086 56.4345 142.086Z" fill="#528B7F"/>
<path d="M56.2053 151.087C57.1476 151.087 57.9115 150.323 57.9115 149.381C57.9115 148.439 57.1476 147.675 56.2053 147.675C55.2629 147.675 54.499 148.439 54.499 149.381C54.499 150.323 55.2629 151.087 56.2053 151.087Z" fill="#528B7F"/>
<path d="M56.2053 161.329C57.1476 161.329 57.9115 160.565 57.9115 159.622C57.9115 158.68 57.1476 157.916 56.2053 157.916C55.2629 157.916 54.499 158.68 54.499 159.622C54.499 160.565 55.2629 161.329 56.2053 161.329Z" fill="#528B7F"/>
<path d="M56.2053 171.568C57.1476 171.568 57.9115 170.804 57.9115 169.862C57.9115 168.919 57.1476 168.155 56.2053 168.155C55.2629 168.155 54.499 168.919 54.499 169.862C54.499 170.804 55.2629 171.568 56.2053 171.568Z" fill="#528B7F"/>
<path d="M56.2053 181.809C57.1476 181.809 57.9115 181.045 57.9115 180.102C57.9115 179.16 57.1476 178.396 56.2053 178.396C55.2629 178.396 54.499 179.16 54.499 180.102C54.499 181.045 55.2629 181.809 56.2053 181.809Z" fill="#528B7F"/>
<path fill-rule="evenodd" clip-rule="evenodd" d="M24.0471 184.265C24.0472 184.265 24.0471 184.265 24.0471 184.265L24.0479 184.266L24.052 184.267L24.0697 184.275C24.0857 184.282 24.1103 184.292 24.1431 184.305C24.2089 184.333 24.3081 184.373 24.4397 184.425C24.7029 184.529 25.0955 184.679 25.6092 184.862C26.6367 185.229 28.1481 185.727 30.0763 186.252C33.9332 187.303 39.4548 188.458 46.104 188.877C46.3643 188.893 46.5619 189.117 46.5456 189.377C46.5292 189.638 46.305 189.835 46.0448 189.819C39.3204 189.396 33.735 188.227 29.8282 187.163C27.8746 186.631 26.3401 186.125 25.292 185.752C24.768 185.565 24.3655 185.411 24.093 185.303C23.9567 185.249 23.8529 185.207 23.7827 185.178C23.7475 185.164 23.7208 185.152 23.7026 185.145L23.6817 185.136L23.676 185.133L23.6739 185.132C23.6737 185.132 23.6736 185.132 23.8604 184.699L23.6739 185.132C23.4344 185.029 23.3236 184.751 23.4268 184.512C23.5299 184.273 23.8077 184.162 24.0471 184.265Z" fill="#35506F"/>
<path d="M32.2796 193.295L32.2903 193.304C32.3002 193.312 32.3154 193.324 32.336 193.341C32.377 193.374 32.4392 193.424 32.5218 193.489C32.687 193.618 32.9336 193.805 33.2551 194.035C33.8982 194.494 34.8404 195.123 36.0303 195.796C38.4123 197.142 41.7747 198.657 45.7103 199.345C45.9671 199.39 46.1389 199.634 46.094 199.891C46.0491 200.148 45.8045 200.32 45.5477 200.275C41.4752 199.563 38.0096 197.999 35.5656 196.618C34.3425 195.926 33.3722 195.279 32.7061 194.803C32.373 194.565 32.1157 194.37 31.9408 194.233C31.8533 194.165 31.7864 194.111 31.7408 194.074C31.718 194.055 31.7005 194.041 31.6885 194.031L31.6746 194.02L31.6707 194.016L31.6691 194.015C31.4697 193.847 31.4439 193.549 31.6119 193.35C31.7798 193.15 32.0776 193.125 32.2771 193.293L32.2796 193.295Z" fill="#35506F"/>
<path fill-rule="evenodd" clip-rule="evenodd" d="M81.683 194.985C81.8143 195.211 81.7382 195.5 81.513 195.631C77.124 198.191 74.0683 199.438 72.0953 200.045C71.1085 200.349 70.3914 200.493 69.9129 200.56C69.6736 200.594 69.494 200.609 69.3701 200.615C69.3081 200.618 69.2601 200.618 69.2256 200.619C69.2083 200.619 69.1944 200.618 69.1838 200.618L69.1704 200.618L69.1655 200.617L69.1636 200.617L69.1627 200.617C69.1623 200.617 69.1619 200.617 69.1857 200.146M69.2074 199.674C69.21 199.674 69.216 199.674 69.2255 199.674C69.2444 199.674 69.2771 199.674 69.3241 199.672C69.418 199.667 69.5689 199.655 69.781 199.625C70.2051 199.565 70.8734 199.433 71.8177 199.143C73.7068 198.561 76.6959 197.347 81.0373 194.815C81.2625 194.684 81.5516 194.76 81.683 194.985" fill="#35506F"/>
<path fill-rule="evenodd" clip-rule="evenodd" d="M84.1012 197.472C84.2189 197.705 84.1258 197.989 83.8932 198.107C81.608 199.264 79.1767 200.106 76.6655 200.61C76.4098 200.661 76.161 200.495 76.1097 200.24C76.0583 199.984 76.224 199.735 76.4796 199.684C78.9072 199.197 81.2576 198.383 83.4667 197.264C83.6994 197.147 83.9834 197.24 84.1012 197.472Z" fill="#35506F"/>
<path fill-rule="evenodd" clip-rule="evenodd" d="M31.5672 197.165C31.7004 196.941 31.9901 196.867 32.2142 197C34.8 198.536 37.6485 199.578 40.6149 200.073C40.8721 200.116 41.0457 200.359 41.0028 200.617C40.9598 200.874 40.7165 201.047 40.4594 201.005C37.3777 200.49 34.4184 199.407 31.7321 197.812C31.5079 197.679 31.4341 197.389 31.5672 197.165Z" fill="#35506F"/>
<path fill-rule="evenodd" clip-rule="evenodd" d="M82.7351 143.099C82.9473 143.084 83.1433 143.213 83.2137 143.414L85.4521 149.796C85.5347 150.031 85.4195 150.291 85.1891 150.387C84.3327 150.746 82.9052 150.98 81.3066 151.139C79.6888 151.3 77.8342 151.39 76.0848 151.438C74.3342 151.487 72.6827 151.494 71.4692 151.489C70.8624 151.487 70.3647 151.481 70.0185 151.476C69.8454 151.474 69.7102 151.472 69.6181 151.47L69.5129 151.468L69.4771 151.467L69.4766 151.467C69.4765 151.467 69.4764 151.467 69.4868 150.995L69.4766 151.467C69.22 151.462 69.0146 151.252 69.0146 150.995V144.503C69.0146 144.255 69.2064 144.05 69.4537 144.032L82.7351 143.099ZM69.9589 150.531C69.9823 150.532 70.0066 150.532 70.0317 150.532C70.3752 150.537 70.8697 150.542 71.473 150.545C72.68 150.55 74.321 150.542 76.0587 150.494C77.7976 150.446 79.6271 150.357 81.2131 150.199C82.5411 150.067 83.6574 149.89 84.4054 149.664L82.4419 144.066L69.9589 144.943V150.531Z" fill="#35506F"/>
<path d="M73.9628 124.256C73.9628 124.256 70.6543 118.792 70.0984 116.405H43.8476C43.2888 118.783 40.0249 124.256 40.0249 124.256L42.3138 127.876L56.7486 131.782V131.851L56.8764 131.815L57.0013 131.851V131.782L71.6531 127.876L73.9628 124.256Z" fill="#D18405"/>
<path d="M74.54 125.031C74.54 125.031 72.1144 121.14 71.0561 118.928L58.1492 119.549C57.2127 119.67 56.2647 119.67 55.3282 119.549L42.7929 119.104C42.0022 121.184 39.4814 124.918 39.4814 124.918L42.3024 128.289L56.7372 131.797V131.859L56.8651 131.826L56.9899 131.859V131.797L71.6417 128.289L74.54 125.031Z" fill="#FFA103"/>
<path d="M32.4785 130.811L34.6336 128.962C35.3657 128.333 35.9763 127.575 36.435 126.727L36.9641 125.752C37.1931 125.325 37.528 124.964 37.9366 124.703C38.3452 124.443 38.8139 124.292 39.2976 124.265C42.3237 124.108 49.4281 125.484 52.1272 131.04C52.1272 131.043 42.0472 134.586 32.4785 130.811Z" fill="#6188AC"/>
<path d="M81.5019 130.81L79.1832 128.819C78.5576 128.282 78.0357 127.635 77.6435 126.91L77.0489 125.834C76.8012 125.376 76.4391 124.991 75.9978 124.714C75.5565 124.438 75.0512 124.281 74.5312 124.259C71.4486 124.119 64.5225 125.543 61.8621 131.012C61.874 131.012 71.9302 134.585 81.5019 130.81Z" fill="#6188AC"/>
<path d="M59.7869 137.399C59.7869 137.399 61.6536 130.488 62.5008 130.033C62.5008 130.033 59.0348 129.947 56.737 131.067C56.737 131.067 53.7109 130.113 51.4785 130.033C51.4785 130.033 52.5784 134.257 52.8875 137.464" fill="#DEDBDA"/>
<path d="M20.3403 46.1878C20.3403 46.1878 25.2391 38.6999 30.6373 31.4141C35.0962 25.4155 38.2085 21.4798 43.6572 15.0026C46.0739 12.1251 49.9204 9.209 52.7562 4.82446C52.8607 4.66562 53.003 4.53524 53.1703 4.44501C53.3377 4.35479 53.5248 4.30755 53.7149 4.30755C53.905 4.30755 54.0921 4.35479 54.2595 4.44501C54.4268 4.53524 54.5691 4.66562 54.6736 4.82446C55.5951 6.22454 55.5653 8.07646 56.3293 10.8736C56.3293 10.8736 58.4725 4.61043 65.0568 2.00348C65.0568 2.00348 71.962 -0.832351 72.9816 0.243721C74.0012 1.31979 72.6844 6.71204 72.6844 6.71204C72.6844 6.71204 80.5409 1.38222 83.9802 1.38816C84.2238 1.38858 84.4608 1.46734 84.6562 1.6128C84.8516 1.75826 84.9951 1.96272 85.0654 2.19597C85.1357 2.42922 85.1292 2.67889 85.0467 2.90812C84.9642 3.13735 84.8102 3.33398 84.6074 3.46896L84.5717 3.49275C83.344 4.30129 80.9125 7.15496 79.4797 13.6322C79.4797 13.6322 77.2829 19.8003 81.7775 29.5593C86.6822 40.21 89.5062 43.6136 89.5062 43.6136L20.3403 46.1878Z" fill="#FFA103"/>
<path d="M98.7152 71.7523C98.7152 46.7827 79.8007 26.5454 56.4689 26.5454C56.2549 26.5454 56.0409 26.5454 55.8298 26.5454H55.1878C31.856 26.5454 12.9326 46.7857 12.9326 71.7523C12.9323 74.518 13.1679 77.2786 13.6371 80.0042C12.677 88.7198 11.5266 97.0162 18.8807 105.443C29.3026 117.378 43.675 116.977 55.8209 116.959C67.9669 116.941 82.3363 117.378 92.7581 105.443C100.112 97.0162 98.9619 88.7198 98.0017 80.0042C98.4739 77.2789 98.7126 74.5182 98.7152 71.7523Z" fill="#FFA103"/>
<path d="M83.3274 62.3388C83.0004 63.3882 78.4672 62.2289 74.4632 60.9833C70.4591 59.7378 65.5841 59.5149 65.7387 57.3152C65.816 56.2183 68.6072 53.0109 75.9941 56.792C79.7247 58.7034 83.6544 61.3044 83.3274 62.3388Z" fill="#D16A1D"/>
<path d="M25.6532 63.0435C25.9505 64.0987 30.5134 63.0167 34.5382 61.8366C38.5631 60.6565 43.4411 60.5168 43.3222 58.3141C43.2627 57.2172 40.525 53.9652 33.0757 57.6215C29.3154 59.4704 25.344 61.9912 25.6532 63.0435Z" fill="#D16A1D"/>
<path d="M92.952 104.827C92.952 104.827 90.2202 101.287 81.0052 99.3309C76.4582 98.3558 72.1269 96.5608 68.2231 94.0337C67.0019 93.2434 65.9184 92.2583 65.0157 91.1176C60.9849 85.9781 56.6925 85.3984 55.8156 85.333H55.6462C54.7544 85.3984 50.4263 85.9899 46.3806 91.2603C45.5915 92.2733 44.6416 93.15 43.5686 93.8554C39.6208 96.4721 35.2194 98.329 30.5903 99.3309C21.4021 101.287 18.7 104.827 18.7 104.827C18.7 104.827 14.9338 109.999 30.522 109.999C43.0811 109.999 48.1612 112.152 49.6624 112.987C50.115 113.236 50.6032 113.415 51.11 113.516C51.8977 113.677 53.0749 113.902 54.2074 114.042C55.1173 114.158 56.0383 114.158 56.9482 114.042C58.2234 113.876 59.5789 113.641 60.438 113.483C60.9322 113.395 61.409 113.227 61.8499 112.987C63.357 112.152 68.4609 109.999 81.0736 109.999C96.736 109.999 92.952 104.827 92.952 104.827Z" fill="#D16A1D"/>
<path d="M64.8318 95.2399C65.3875 94.6269 64.8203 93.2075 63.565 92.0697C62.3097 90.9318 60.8416 90.5064 60.2859 91.1195C59.7303 91.7325 60.2974 93.1519 61.5527 94.2897C62.808 95.4276 64.2761 95.853 64.8318 95.2399Z" fill="#B25B19"/>
<path d="M49.6681 94.2882C50.9234 93.1504 51.4905 91.731 50.9348 91.118C50.3791 90.5049 48.911 90.9303 47.6557 92.0682C46.4004 93.206 45.8333 94.6254 46.389 95.2385C46.9447 95.8515 48.4128 95.4261 49.6681 94.2882Z" fill="#B25B19"/>
<path d="M28.3438 108.977C28.3438 108.977 38.5932 107.719 43.4593 107.253C48.3254 106.786 50.8669 105.469 56.4019 105.933H56.4613C61.9963 105.481 64.2733 107.342 69.1572 107.553C73.9638 107.761 84.2935 109.224 84.2935 109.224C84.2935 109.224 72.6351 108.804 56.3186 109.033C47.4752 109.149 41.1734 109.164 28.3438 108.977Z" fill="#3C1808"/>
<path d="M86.3767 82.377C86.3767 89.4755 80.4316 94.3327 74.1208 94.3327C67.81 94.3327 62.7031 88.5778 62.7031 81.4793C62.7031 74.3808 64.6858 66.8364 70.9936 66.8364C74.0078 66.8364 78.2497 68.3495 81.2342 71.1377C84.498 74.1846 86.3767 78.6732 86.3767 82.377Z" fill="#C7C6C5"/>
<path d="M79.0707 85.7947C79.0707 89.882 75.9376 93.1281 72.3527 93.1281C68.7677 93.1281 65.0847 90.0753 65.0847 85.9939C65.0847 81.9126 67.5728 77.8193 71.1577 77.8193C74.7426 77.8193 79.0707 81.6985 79.0707 85.7947Z" fill="#080808"/>
<path d="M68.2294 83.5682C68.8713 83.5682 69.3917 83.0478 69.3917 82.4059C69.3917 81.764 68.8713 81.2437 68.2294 81.2437C67.5875 81.2437 67.0671 81.764 67.0671 82.4059C67.0671 83.0478 67.5875 83.5682 68.2294 83.5682Z" fill="white"/>
<path d="M24.5269 82.377C24.5269 89.4755 30.472 94.3327 36.7828 94.3327C43.0936 94.3327 48.2004 88.5778 48.2004 81.4793C48.2004 74.3808 46.2266 66.8364 39.907 66.8364C36.8928 66.8364 32.6539 68.3495 29.6664 71.1377C26.4055 74.1846 24.5269 78.6732 24.5269 82.377Z" fill="#C7C6C5"/>
<path d="M31.4502 85.7947C31.4502 89.882 34.5833 93.1281 38.1682 93.1281C41.7531 93.1281 45.4362 90.0753 45.4362 85.9939C45.4362 81.9126 42.9511 77.8193 39.3632 77.8193C35.7753 77.8193 31.4502 81.6985 31.4502 85.7947Z" fill="#080808"/>
<path d="M35.2428 83.5682C35.8847 83.5682 36.4051 83.0478 36.4051 82.4059C36.4051 81.764 35.8847 81.2437 35.2428 81.2437C34.6009 81.2437 34.0806 81.764 34.0806 82.4059C34.0806 83.0478 34.6009 83.5682 35.2428 83.5682Z" fill="white"/>
<path d="M104.962 121.444C104.962 121.444 104.78 114.069 106.35 112.725C106.35 112.725 98.2792 122.017 88.7848 121.444C79.2904 120.87 59.8944 128.92 54.083 138.09L56.1222 140.534L104.962 121.444Z" fill="#E7EDC3"/>
<path d="M3.44544 130.037C3.44544 130.037 3.49895 124.035 1.50732 121.443C1.50732 121.443 8.43343 128.321 18.5491 127.225C18.5491 127.225 37.1307 124.576 54.6986 138.568L45.9562 139.183L3.44544 130.037Z" fill="#E7EDC3"/>
<path d="M2.75342 129.916L50.2908 138.286L54.3276 184.183L7.53629 173.568L2.75342 129.916Z" fill="#8BE680"/>
<path d="M60.7568 137.837L105.904 121.095L108.146 165.196L63.7472 182.836L60.7568 137.837Z" fill="#8BE680"/>
<path d="M51.3363 137.284C51.3363 137.284 55.1233 140.572 59.3622 136.636C59.3622 136.636 60.6583 136.187 61.0566 138.122L64.047 184.167C64.047 184.167 58.6666 187.306 54.3296 184.167L50.2929 138.271C50.2929 138.271 49.743 136.568 51.3363 137.284Z" fill="#71BA7A"/>
<path d="M0.0147457 151.958C-0.0367853 152.599 0.0470926 153.243 0.26093 153.85C0.474768 154.456 0.813779 155.01 1.25592 155.477C1.69806 155.943 2.23342 156.311 2.82722 156.557C3.42102 156.803 4.05996 156.922 4.70249 156.905C5.90496 156.884 7.10139 156.73 8.26958 156.444C10.6803 155.811 11.4621 151.56 9.69345 148.671C9.26787 147.973 8.79093 147.309 8.2666 146.682C5.65668 143.561 0.555748 145.261 0.240655 149.313L0.0147457 151.958Z" fill="#FFA103"/>
<path d="M109.985 138.228C110.037 137.587 109.953 136.943 109.739 136.336C109.525 135.73 109.186 135.176 108.743 134.709C108.301 134.242 107.765 133.874 107.171 133.628C106.577 133.382 105.937 133.264 105.295 133.282C104.092 133.302 102.896 133.456 101.727 133.74C99.3137 134.376 98.5349 138.627 100.304 141.513C100.729 142.211 101.206 142.877 101.73 143.505C104.337 146.623 109.438 144.926 109.756 140.871L109.985 138.228Z" fill="#FFA103"/>
<rect x="3" y="232" width="105" height="5" rx="2.5" fill="#1B56AA"/>
</svg>
