<svg width="657" height="137" viewBox="0 0 657 137" fill="none" xmlns="http://www.w3.org/2000/svg">
<mask id="path-1-inside-1_1_3373" fill="white">
<path fill-rule="evenodd" clip-rule="evenodd" d="M66.7764 17.2665L5.86355 35.9988C-0.0227908 37.8091 -1.74214 45.3126 2.76872 49.5052L46.5349 90.1837C55.4902 117.276 81.0187 136.826 111.113 136.826H588.113C625.669 136.826 656.113 106.382 656.113 68.8262C656.113 31.2708 625.669 0.826172 588.113 0.826172H111.113C94.1739 0.826172 78.6812 7.02001 66.7764 17.2665Z"/>
</mask>
<path d="M5.86355 35.9988L4.98173 33.1314L4.98173 33.1314L5.86355 35.9988ZM66.7764 17.2665L67.6582 20.1339L68.2579 19.9495L68.7334 19.5402L66.7764 17.2665ZM2.76872 49.5052L0.726335 51.7026L0.726335 51.7026L2.76872 49.5052ZM46.5349 90.1837L49.3833 89.2421L49.1416 88.5107L48.5773 87.9863L46.5349 90.1837ZM6.74538 38.8663L67.6582 20.1339L65.8946 14.399L4.98173 33.1314L6.74538 38.8663ZM4.81111 47.3078C1.99182 44.6874 3.06642 39.9977 6.74538 38.8663L4.98173 33.1314C-3.112 35.6204 -5.4761 45.9378 0.726335 51.7026L4.81111 47.3078ZM48.5773 87.9863L4.81111 47.3078L0.726335 51.7026L44.4925 92.3811L48.5773 87.9863ZM43.6865 91.1252C53.0358 119.41 79.6864 139.826 111.113 139.826V133.826C82.351 133.826 57.9446 115.143 49.3833 89.2421L43.6865 91.1252ZM111.113 139.826H588.113V133.826H111.113V139.826ZM588.113 139.826C627.325 139.826 659.113 108.038 659.113 68.8262H653.113C653.113 104.725 624.012 133.826 588.113 133.826V139.826ZM659.113 68.8262C659.113 29.614 627.325 -2.17383 588.113 -2.17383V3.82617C624.012 3.82617 653.113 32.9277 653.113 68.8262H659.113ZM588.113 -2.17383H111.113V3.82617H588.113V-2.17383ZM111.113 -2.17383C93.4289 -2.17383 77.2479 4.29548 64.8194 14.9927L68.7334 19.5402C80.1145 9.74455 94.919 3.82617 111.113 3.82617V-2.17383Z" fill="#949494" mask="url(#path-1-inside-1_1_3373)"/>
</svg>
