<svg width="418" height="65" viewBox="0 0 418 65" fill="none" xmlns="http://www.w3.org/2000/svg">
<path d="M39.1163 0H25.8837C11.5885 0 0 11.5885 0 25.8837V39.1163C0 53.4115 11.5885 65 25.8837 65H39.1163C53.4115 65 65 53.4115 65 39.1163V25.8837C65 11.5885 53.4115 0 39.1163 0Z" fill="#235390"/>
<path d="M49.9277 39.4038C49.9277 28.7804 42.6982 20.4482 32.7695 20.4482H32.4954H32.2234C22.2968 20.4482 15.3331 29.0608 15.3331 39.6842C15.3331 40.8831 14.3518 42.0549 14.5485 43.1953C14.1404 46.9031 13.6487 50.4331 16.779 54.0175C21.2129 59.0959 27.3292 58.9264 32.4954 58.918C37.6617 58.9096 43.7779 59.0959 48.2139 54.0175C51.3422 50.4331 50.8525 46.9031 50.4445 43.1953C50.6433 42.057 49.9277 40.6028 49.9277 39.4038Z" fill="#000061"/>
<path d="M48.0526 37.6568C48.0526 27.0334 40.005 18.4209 30.0763 18.4209H29.8043H29.5323C19.6036 18.4209 11.556 27.0334 11.556 37.6568C11.555 38.8357 11.6551 40.0125 11.8552 41.1742C11.4367 44.8821 10.9576 48.412 14.0879 51.9985C18.5218 57.0769 24.6464 56.899 29.8043 56.8928C34.9622 56.8865 41.0868 57.0706 45.5207 51.9922C48.6594 48.4058 48.1614 44.8779 47.7534 41.168C47.9531 40.0083 48.0532 38.8336 48.0526 37.6568Z" fill="url(#paint0_linear_402_2)"/>
<path d="M17.3994 26.7796C17.3994 26.7796 19.4919 23.5928 21.781 20.5022C23.6642 17.9473 25.0013 16.2734 27.3197 13.5176C28.3492 12.2935 29.9855 11.0527 31.1908 9.18624C31.2354 9.11891 31.2961 9.06367 31.3673 9.02546C31.4385 8.98725 31.518 8.96726 31.5988 8.96726C31.6796 8.96726 31.7592 8.98725 31.8303 9.02546C31.9015 9.06367 31.9622 9.11891 32.0068 9.18624C32.4002 9.7805 32.3877 10.5693 32.712 11.76C32.712 11.76 33.6243 9.09417 36.4261 7.99354C36.4261 7.99354 39.3555 6.78828 39.797 7.24653C40.2386 7.70478 39.6694 9.99811 39.6694 9.99811C39.6694 9.99811 43.0173 7.72989 44.482 7.73198C44.5837 7.7345 44.6821 7.76904 44.763 7.83068C44.8439 7.89232 44.9033 7.97792 44.9328 8.07529C44.9622 8.17266 44.9602 8.27684 44.927 8.37299C44.8938 8.46915 44.8311 8.55237 44.7478 8.61081L44.7331 8.62127C44.21 8.96444 43.1764 10.1802 42.5675 12.9359C42.5675 12.9359 41.6321 15.5599 43.5446 19.7134C45.6245 24.2247 46.8277 25.6727 46.8277 25.6727L17.3994 26.7796Z" fill="#FFAB03"/>
<path d="M50.7461 37.6559C50.7461 27.0325 42.6985 18.4199 32.7719 18.4199H32.4978H32.2258C22.2992 18.4199 14.2495 27.0325 14.2495 37.6559C14.2492 38.8348 14.35 40.0116 14.5508 41.1733C14.1428 44.8811 13.6511 48.4111 16.7814 51.9975C21.2153 57.0759 27.3315 56.9043 32.4978 56.8981C37.6641 56.8918 43.7803 57.0759 48.2163 51.9975C51.3445 48.4111 50.8549 44.8832 50.4469 41.1733C50.647 40.0115 50.7471 38.8347 50.7461 37.6559Z" fill="#FFAB03"/>
<path d="M45.0978 40.4463C45.0978 43.4657 42.5681 45.533 39.8834 45.533C37.1988 45.533 35.0269 43.0849 35.0269 40.0655C35.0269 37.046 35.8638 33.832 38.5526 33.832C39.8353 33.832 41.6411 34.4765 42.9112 35.665C44.2985 36.9603 45.0978 38.8707 45.0978 40.4463Z" fill="#D1D0CF"/>
<path d="M42.8956 40.854C42.8956 42.9987 41.251 44.7041 39.3678 44.7041C37.4846 44.7041 35.5532 43.1013 35.5532 40.9565C35.5532 38.8118 36.8589 36.667 38.74 36.667C40.6211 36.667 42.8956 38.7113 42.8956 40.854Z" fill="#080808"/>
<path d="M18.6372 40.4463C18.6372 43.4657 21.1691 45.533 23.8516 45.533C26.5341 45.533 28.7103 43.0849 28.7103 40.0655C28.7103 37.046 27.8733 33.832 25.1824 33.832C23.8997 33.832 22.096 34.4765 20.8238 35.665C19.4365 36.9603 18.6372 38.8707 18.6372 40.4463Z" fill="#D1D0CF"/>
<path d="M20.8408 40.8539C20.8408 42.9987 22.4855 44.704 24.3687 44.704C26.2519 44.704 28.1832 43.1012 28.1832 40.9648C28.1832 38.8284 26.8776 36.6753 24.9964 36.6753C23.1153 36.6753 20.8408 38.7112 20.8408 40.8539Z" fill="#080808"/>
<path d="M45.6036 34.8469C45.3944 35.2654 43.5697 34.4682 41.9732 33.6689C40.3767 32.8695 38.3449 32.4427 38.5625 31.5304C38.6692 31.0742 40.0628 29.9192 42.9043 32.0158C44.3398 33.0725 45.8128 34.4284 45.6036 34.8469Z" fill="#DB6A1D"/>
<path d="M18.4438 34.8469C18.6531 35.2654 20.4777 34.4682 22.0721 33.6689C23.6666 32.8695 25.6921 32.4427 25.4828 31.5304C25.374 31.0742 23.9825 29.9192 21.141 32.0158C19.7056 33.0725 18.2346 34.4284 18.4438 34.8469Z" fill="#DB6A1D"/>
<path d="M48.0817 50.0012C48.0817 50.0012 46.9225 48.4946 42.997 47.6618C41.0569 47.2436 39.2091 46.4757 37.5441 45.3957C37.0289 45.0585 36.5723 44.6394 36.1924 44.1549C34.4786 41.9787 32.6624 41.7318 32.2857 41.7046H32.2125C31.8338 41.7339 29.9924 41.985 28.2703 44.2281C27.9433 44.6497 27.5496 45.0152 27.1048 45.3099C25.4183 46.4333 23.536 47.2304 21.5556 47.6597C17.6469 48.4967 16.4919 49.9991 16.4919 49.9991C16.4919 49.9991 14.8912 51.4408 21.5242 51.4408C28.1573 51.4408 29.8941 52.849 29.8941 52.849C29.8941 52.849 31.3588 53.2549 32.2627 53.0582C33.1667 53.2675 34.6397 52.849 34.6397 52.849C34.6397 52.849 36.3786 51.4408 43.041 51.4408C49.7033 51.4408 48.0817 50.0012 48.0817 50.0012Z" fill="#DB6A1D"/>
<path d="M36.1194 45.9211C36.3553 45.6609 36.1134 45.0572 35.5791 44.573C35.0449 44.0887 34.4205 43.9071 34.1845 44.1674C33.9486 44.4277 34.1904 45.0313 34.7247 45.5156C35.259 45.9999 35.8834 46.1814 36.1194 45.9211Z" fill="#BC5B19"/>
<path d="M29.6675 45.5135C30.2018 45.0292 30.4437 44.4256 30.2077 44.1653C29.9718 43.905 29.3474 44.0866 28.8131 44.5709C28.2788 45.0552 28.037 45.6588 28.2729 45.9191C28.5088 46.1793 29.1332 45.9978 29.6675 45.5135Z" fill="#BC5B19"/>
<path d="M22.8332 39.6854C23.1706 39.6854 23.4442 39.4118 23.4442 39.0744C23.4442 38.7369 23.1706 38.4634 22.8332 38.4634C22.4957 38.4634 22.2222 38.7369 22.2222 39.0744C22.2222 39.4118 22.4957 39.6854 22.8332 39.6854Z" fill="white"/>
<path d="M37.2038 39.6854C37.5412 39.6854 37.8148 39.4118 37.8148 39.0744C37.8148 38.7369 37.5412 38.4634 37.2038 38.4634C36.8663 38.4634 36.5928 38.7369 36.5928 39.0744C36.5928 39.4118 36.8663 39.6854 37.2038 39.6854Z" fill="white"/>
<path d="M20.5952 51.1207C20.5952 51.1207 24.9894 50.6081 27.0358 50.2566C29.0822 49.905 30.1431 48.7186 32.4971 48.9111H32.5243C34.8783 48.7186 35.9099 49.9071 37.9647 50.2587C40.0195 50.6102 44.4053 51.1228 44.4053 51.1228C44.4053 51.1228 31.5136 50.3131 20.5952 51.1207Z" fill="#3C1808"/>
<path d="M88.8896 18.0001C91.7741 18.0001 94.2349 18.5943 96.2722 19.7827C98.3095 20.9711 99.3248 22.2322 99.3183 23.5658C99.3255 23.8921 99.2406 24.2137 99.0734 24.4939C98.9375 24.7287 98.7357 24.9185 98.4931 25.0399C98.2591 25.1481 98.0041 25.2033 97.7463 25.2015C97.3104 25.2015 96.6542 24.9787 95.7874 24.5306C94.9205 24.0825 93.9435 23.632 92.8784 23.1839C91.9531 22.7674 90.9544 22.5385 89.94 22.5105C88.5068 22.5105 87.7909 23.0924 87.7926 24.2564C87.7957 24.6301 87.9165 24.9934 88.1378 25.2946C88.447 25.6947 88.8222 26.0391 89.2471 26.3132C89.7564 26.6642 90.2535 26.9727 90.7383 27.2388C91.2231 27.5049 91.89 27.8624 92.7388 28.3113C93.5893 28.7618 94.3051 29.1561 94.8863 29.494C96.7521 30.5616 98.0581 31.5802 98.8041 32.5499C99.5498 33.5038 99.9473 34.684 99.9305 35.8947C99.9305 40.9144 96.5481 43.4243 89.7833 43.4243C88.4816 43.428 87.1832 43.2942 85.9096 43.0251C84.7829 42.7975 83.6855 42.4435 82.6382 41.9698C81.7655 41.5709 80.9359 41.0835 80.1626 40.5153C79.532 40.0675 78.9843 39.5131 78.5441 38.8772C78.215 38.4202 78.0261 37.8774 78.0005 37.3149C77.989 36.8086 78.1782 36.3183 78.527 35.951C78.8771 35.5739 79.3938 35.3854 80.072 35.3854C80.5814 35.3854 81.8057 35.707 83.745 36.3502C85.6843 36.9933 87.2482 37.3149 88.4366 37.3149C89.5254 37.3149 90.0706 36.9386 90.0723 36.1861C90.0751 35.9791 90.0316 35.7742 89.9449 35.5862C89.8428 35.3748 89.6996 35.1859 89.5238 35.0303C89.3079 34.842 89.0769 34.6717 88.8332 34.521C88.5786 34.3578 88.2268 34.1578 87.7779 33.9211L86.4311 33.1865L84.6681 32.2414C83.9401 31.8545 83.2365 31.4668 82.5574 31.0783C81.6829 30.5873 80.9014 29.9466 80.2483 29.1855C79.6608 28.523 79.1875 27.7675 78.8477 26.9499C78.5749 26.2984 78.4271 25.6015 78.4119 24.8955C78.4119 22.8582 79.3211 21.1972 81.1396 19.9125C82.9582 18.6278 85.5415 17.9903 88.8896 18.0001Z" fill="#FF3E20"/>
<path d="M117.728 37.7232C117.728 39.1043 117.559 40.2037 117.219 41.0142C116.966 41.725 116.471 42.324 115.821 42.7062C115.089 43.0512 114.284 43.2134 113.475 43.1788C112.043 43.1788 111.007 42.7968 110.365 42.0328C109.724 41.2689 109.387 39.914 109.356 37.9681L109.283 24.5472H106.2C104.672 24.5472 103.529 24.3023 102.772 23.8126C102.014 23.3228 101.632 22.4617 101.626 21.2293C101.593 20.6033 101.751 19.9821 102.081 19.4491C102.414 18.9904 102.896 18.6622 103.445 18.5211C104.241 18.317 105.061 18.2255 105.882 18.2493H121.448C122.806 18.2493 123.785 18.4941 124.386 18.9839C124.987 19.4736 125.29 20.3094 125.294 21.4913C125.294 22.2912 125.119 22.9155 124.768 23.3645C124.413 23.8161 123.922 24.1415 123.367 24.2925C122.631 24.4783 121.872 24.5607 121.112 24.5374H117.728V37.7232Z" fill="#FF3E20"/>
<path d="M145.703 41.9509C143.685 42.8973 141.484 43.3879 139.255 43.3879C137.027 43.3879 134.826 42.8973 132.808 41.9509C130.9 40.9889 129.314 39.4912 128.244 37.6413C127.101 35.7265 126.53 33.4721 126.53 30.8782C126.53 26.949 127.712 23.827 130.075 21.5122C132.439 19.1974 135.501 18.0392 139.26 18.0376C143.015 18.0376 146.082 19.1958 148.462 21.5122C150.842 23.8286 152.031 26.9474 152.03 30.8684C152.03 33.4607 151.458 35.7151 150.316 37.6315C149.23 39.4888 147.627 40.9897 145.703 41.9509ZM139.265 38.0797C139.68 38.0751 140.089 37.9741 140.458 37.7845C140.827 37.595 141.147 37.3221 141.393 36.9876C142.016 36.1981 142.452 35.2769 142.666 34.2941C142.928 33.1703 143.056 32.0197 143.048 30.866C143.054 29.6837 142.919 28.505 142.647 27.3546C142.418 26.3355 141.978 25.3755 141.356 24.5363C140.762 23.7592 140.065 23.3715 139.265 23.3732C138.465 23.3748 137.786 23.7625 137.228 24.5363C136.61 25.3877 136.165 26.3518 135.918 27.3742C135.623 28.5155 135.477 29.6898 135.482 30.8684C135.474 32.0244 135.615 33.1765 135.901 34.2965C136.137 35.2787 136.584 36.1978 137.211 36.99C137.803 37.7164 138.488 38.0797 139.265 38.0797Z" fill="#FF3E20"/>
<path d="M164.503 37.7243C164.503 41.3597 163.085 43.1783 160.248 43.1799C158.818 43.1799 157.769 42.7979 157.101 42.0339C156.433 41.27 156.1 39.915 156.102 37.9692V22.6212C156.102 21.2157 156.484 20.1423 157.248 19.4012C158.012 18.6601 159.012 18.2904 160.248 18.292H167.88C170.862 18.292 173.275 18.989 175.118 20.3831C176.961 21.7772 177.883 23.5655 177.883 25.7481C177.883 27.3985 177.537 28.6897 176.847 29.6218C176.156 30.5539 175.047 31.2387 173.519 31.6762C174.683 31.7497 175.762 32.3137 176.756 33.3682C177.754 34.4358 178.29 35.8545 178.247 37.3154C178.247 38.9136 178.096 40.1436 177.792 41.0055C177.488 41.8674 177.058 42.4437 176.502 42.7342C175.943 43.0248 175.155 43.1701 174.136 43.1701C172.706 43.1701 171.657 42.873 170.99 42.2788C170.322 41.6846 169.989 40.7819 169.991 39.5706C169.991 38.0671 169.845 36.9089 169.555 36.096C169.264 35.283 168.888 34.7558 168.426 34.5142C167.822 34.242 167.161 34.117 166.499 34.1493L164.498 34.1861L164.503 37.7243ZM170.069 25.5032C170.069 24.3409 169.645 23.541 168.796 23.1036C167.947 22.6661 166.516 22.4481 164.503 22.4498V28.7403C166.394 28.7403 167.793 28.5044 168.703 28.0326C169.612 27.5609 170.067 26.7145 170.069 25.4934V25.5032Z" fill="#FFAB03"/>
<path d="M191.018 37.723C191.018 39.6133 190.666 40.9952 189.962 41.8685C189.259 42.7419 188.192 43.1785 186.762 43.1785C185.357 43.1785 184.32 42.8031 183.652 42.0522C182.985 41.3012 182.652 39.9553 182.653 38.0144V22.6198C182.653 19.7108 184.023 18.2563 186.762 18.2563C188.168 18.2563 189.229 18.5224 189.945 19.0546C190.662 19.5868 191.019 20.6674 191.018 22.2966V37.723Z" fill="#FFAB03"/>
<path d="M216.986 44.8779C217.931 44.9269 218.635 45.2183 219.096 45.7521C219.558 46.2859 219.789 47.1837 219.787 48.4456C219.787 49.9001 219.399 50.8999 218.624 51.4452C217.848 51.9904 216.757 52.263 215.35 52.263C213.999 52.2724 212.655 52.07 211.366 51.6631C210.343 51.3657 209.364 50.9316 208.457 50.3727C207.791 49.9324 207.175 49.42 206.621 48.8447C206.22 48.4302 205.883 47.9581 205.622 47.4441C205.293 46.8127 205.03 46.1488 204.838 45.4632C204.619 44.7041 204.485 43.9231 204.439 43.1345C201.481 42.5795 199.086 41.2335 197.255 39.0967C195.423 36.9599 194.508 34.2321 194.51 30.9134C194.51 26.9629 195.704 23.8352 198.092 21.5302C200.48 19.2252 203.551 18.0728 207.304 18.0728C211.039 18.0728 214.088 19.2244 216.452 21.5278C218.816 23.8311 219.998 26.9588 219.998 30.9109C219.998 34.0893 219.167 36.7264 217.507 38.8225C215.842 40.9225 213.51 42.3911 210.896 42.9851C211.902 44.0772 213.931 44.7082 216.986 44.8779ZM210.659 34.3317C210.909 33.2064 211.031 32.0563 211.021 30.9036C211.028 29.7168 210.899 28.533 210.639 27.3751C210.426 26.3631 209.999 25.4086 209.385 24.5763C208.802 23.8123 208.111 23.4304 207.311 23.4304C206.511 23.4304 205.814 23.8181 205.22 24.5935C204.596 25.4336 204.15 26.3928 203.91 27.4118C203.626 28.5597 203.487 29.7384 203.494 30.9207C203.492 31.6146 203.541 32.3077 203.638 32.9947C203.73 33.6602 203.883 34.3158 204.094 34.9536C204.273 35.5207 204.519 36.0642 204.828 36.5722C205.102 37.0145 205.468 37.3928 205.901 37.6814C206.316 37.9574 206.803 38.1032 207.301 38.1001C207.714 38.0969 208.121 37.9964 208.487 37.8066C208.854 37.6169 209.171 37.3433 209.412 37.008C210.025 36.2219 210.451 35.3067 210.659 34.3317Z" fill="#235390"/>
<path d="M237.912 37.6407H231.874V39.5702C231.874 40.8076 231.547 41.7168 230.894 42.298C230.241 42.8791 229.114 43.1697 227.513 43.1697C226.941 43.1903 226.371 43.0911 225.84 42.8783C225.376 42.6629 224.979 42.3241 224.694 41.8989C224.307 41.2872 224.056 40.5989 223.96 39.8812C223.781 38.8217 223.659 37.7533 223.595 36.6808C223.508 35.432 223.466 33.8494 223.468 31.9329C223.454 30.3835 223.63 28.8382 223.994 27.3319C224.286 26.0854 224.765 24.8901 225.414 23.7863C225.979 22.8523 226.657 21.9912 227.432 21.2226C228.143 20.5106 228.971 19.9266 229.881 19.4963C230.708 19.1033 231.573 18.7924 232.461 18.5683C233.289 18.3638 234.138 18.2602 234.991 18.2598C236.011 18.2606 237.026 18.4007 238.008 18.676C239.083 18.9939 240.102 19.479 241.027 20.1134C242.053 20.8002 242.957 21.6544 243.701 22.6404C244.552 23.8254 245.186 25.1518 245.574 26.5582C246.082 28.308 246.329 30.1232 246.308 31.9452C246.308 35.1447 246.193 37.5117 245.963 39.0462C245.733 40.5807 245.345 41.654 244.8 42.2662C244.253 42.8718 243.41 43.1746 242.271 43.1746C240.671 43.1746 239.544 42.884 238.889 42.3029C238.234 41.7217 237.908 40.8125 237.91 39.5751L237.912 37.6407ZM234.93 24.1855C233.886 24.1855 233.117 24.4883 232.621 25.0939C232.124 25.6995 231.879 26.7786 231.886 28.331V32.6234H237.912V28.2575C237.94 27.4259 237.817 26.5961 237.547 25.8089C237.377 25.2789 237.022 24.8273 236.548 24.5356C236.042 24.2843 235.482 24.1639 234.917 24.1855H234.93Z" fill="#235390"/>
<path d="M270.05 18C272.935 18 275.395 18.5942 277.433 19.7826C279.47 20.971 280.489 22.232 280.489 23.5657C280.497 23.8921 280.412 24.214 280.244 24.4938C280.108 24.7286 279.906 24.9184 279.663 25.0398C279.433 25.1463 279.182 25.2014 278.929 25.2014C278.493 25.2014 277.84 24.9778 276.97 24.5305C276.098 24.0824 275.126 23.6319 274.061 23.1838C273.136 22.7673 272.137 22.5384 271.123 22.5104C269.691 22.5104 268.975 23.0923 268.975 24.2563C268.978 24.6305 269.1 24.9941 269.323 25.2945C269.632 25.6945 270.007 26.039 270.432 26.3131C270.913 26.6471 271.411 26.956 271.923 27.2387C272.413 27.5064 273.08 27.8639 273.924 28.3112C274.768 28.7585 275.483 29.1527 276.069 29.4939C277.935 30.5615 279.241 31.5801 279.987 32.5498C280.732 33.5037 281.13 34.6839 281.113 35.8946C281.113 40.9143 277.731 43.4242 270.966 43.4242C269.664 43.4278 268.366 43.294 267.092 43.025C265.965 42.7974 264.868 42.4434 263.821 41.9697C262.949 41.5708 262.12 41.0834 261.348 40.5152C260.716 40.0687 260.168 39.5142 259.729 38.877C259.398 38.4208 259.209 37.8777 259.183 37.3148C259.173 36.8087 259.362 36.3188 259.709 35.9509C260.062 35.5738 260.577 35.3853 261.255 35.3853C261.764 35.3853 262.988 35.7069 264.928 36.3501C266.867 36.9932 268.431 37.3148 269.619 37.3148C270.708 37.3148 271.253 36.9385 271.255 36.186C271.258 35.979 271.214 35.7741 271.127 35.5861C271.02 35.3769 270.872 35.1913 270.692 35.04C270.471 34.8545 270.236 34.6875 269.989 34.5405C269.734 34.3773 269.382 34.1773 268.933 33.9406L267.587 33.206L265.824 32.2608C265.097 31.8739 264.394 31.4862 263.713 31.0977C262.839 30.6059 262.058 29.9654 261.404 29.2049C260.816 28.5431 260.344 27.7874 260.006 26.9693C259.732 26.3181 259.583 25.6212 259.567 24.9149C259.567 22.8777 260.477 21.2167 262.295 19.932C264.114 18.6473 266.699 18.0033 270.05 18Z" fill="#1DB700"/>
<path d="M299.329 25.0934C299.328 24.8412 299.27 24.5924 299.16 24.3656C299.05 24.1387 298.89 23.9397 298.692 23.7834C298.273 23.4223 297.737 23.2279 297.184 23.2373C296.018 23.2373 295.06 23.8985 294.309 25.2207C293.545 26.5925 293.156 28.1416 293.183 29.7115C293.165 30.91 293.416 32.0972 293.917 33.1861C294.376 34.1842 295.107 35.0328 296.025 35.6348C296.977 36.251 298.092 36.5683 299.226 36.5457C300.114 36.5476 300.993 36.3676 301.809 36.0168C302.528 35.727 303.202 35.3353 303.81 34.8537C304.312 34.4337 304.841 34.0453 305.392 33.6906C305.811 33.382 306.309 33.1987 306.829 33.1616C307.091 33.1615 307.351 33.2184 307.589 33.3283C307.828 33.4382 308.039 33.5986 308.21 33.7983C308.567 34.1499 308.775 34.6248 308.793 35.1254C308.766 35.7448 308.611 36.3518 308.337 36.908C307.964 37.6948 307.48 38.4238 306.9 39.0726C306.219 39.8607 305.451 40.5688 304.61 41.1834C303.616 41.8852 302.517 42.4249 301.354 42.7823C300.032 43.2101 298.651 43.425 297.262 43.419C295.475 43.4364 293.697 43.1474 292.007 42.5644C290.461 42.034 289.034 41.2063 287.805 40.128C286.585 39.027 285.629 37.6653 285.007 36.1441C284.305 34.4361 283.959 32.6032 283.988 30.7571C283.988 26.8295 285.163 23.7279 287.514 21.4523C289.865 19.1767 292.944 18.034 296.753 18.0242C298.594 18.0054 300.423 18.3378 302.14 19.0036C303.654 19.5694 305.001 20.5075 306.058 21.7314C306.986 22.7883 307.503 24.1445 307.512 25.5513C307.515 27.1449 306.947 28.6868 305.911 29.8976C305.418 30.5218 304.787 31.0227 304.068 31.3606C303.348 31.6985 302.56 31.8641 301.765 31.8443C300.831 31.8553 299.916 31.5755 299.148 31.0436C298.772 30.7943 298.468 30.4523 298.264 30.0508C298.059 29.6492 297.962 29.2017 297.982 28.7517C297.982 28.2913 298.206 27.649 298.655 26.8246C299.103 26.0141 299.329 25.4338 299.329 25.0934Z" fill="#1DB700"/>
<path d="M336.899 37.7235C336.899 39.6824 336.548 41.083 335.846 41.9253C335.144 42.7677 334.076 43.1856 332.643 43.179C331.237 43.179 330.207 42.797 329.553 42.0331C328.898 41.2691 328.572 39.9174 328.573 37.9781L328.537 33.8693H321.117V37.7235C321.117 39.7118 320.778 41.1181 320.099 41.9425C319.419 42.7668 318.34 43.1749 316.861 43.1668C315.456 43.1668 314.426 42.7848 313.771 42.0208C313.117 41.2568 312.79 39.9052 312.792 37.9659L312.682 22.6179C312.682 21.1144 313.064 20.0109 313.828 19.3073C314.592 18.6037 315.604 18.2528 316.864 18.2544C318.318 18.2544 319.392 18.5205 320.084 19.0527C320.776 19.5848 321.121 20.6638 321.12 22.2897V28.4113H328.502V22.6203C328.47 21.7436 328.664 20.8733 329.065 20.0933C329.388 19.4781 329.897 18.9809 330.52 18.6731C331.19 18.3808 331.917 18.2387 332.648 18.2569C334.057 18.2569 335.118 18.5229 335.831 19.0551C336.544 19.5873 336.902 20.6663 336.904 22.2922L336.899 37.7235Z" fill="#1DB700"/>
<path d="M359.852 41.9509C357.834 42.8973 355.633 43.3879 353.405 43.3879C351.176 43.3879 348.975 42.8973 346.957 41.9509C345.049 40.9889 343.463 39.4912 342.393 37.6413C341.251 35.7265 340.679 33.4721 340.679 30.8782C340.679 26.949 341.861 23.827 344.225 21.5122C346.589 19.1974 349.65 18.0392 353.41 18.0376C357.164 18.0376 360.232 19.1958 362.612 21.5122C364.992 23.8286 366.179 26.9474 366.174 30.8684C366.174 33.4607 365.603 35.7151 364.46 37.6315C363.376 39.4881 361.775 40.989 359.852 41.9509ZM353.415 38.0797C353.83 38.0751 354.238 37.9741 354.607 37.7845C354.977 37.595 355.297 37.3221 355.542 36.9876C356.166 36.1981 356.601 35.2769 356.816 34.2941C357.077 33.1703 357.205 32.0197 357.198 30.866C357.204 29.6837 357.069 28.505 356.796 27.3546C356.567 26.3355 356.128 25.3755 355.506 24.5363C354.911 23.7592 354.214 23.3715 353.415 23.3732C352.615 23.3748 351.936 23.7625 351.377 24.5363C350.76 25.3877 350.315 26.3518 350.067 27.3742C349.774 28.5149 349.628 29.6883 349.631 30.866C349.623 32.0219 349.764 33.1741 350.05 34.2941C350.286 35.2763 350.733 36.1953 351.36 36.9876C351.949 37.7156 352.633 38.0797 353.41 38.0797H353.415Z" fill="#1DB700"/>
<path d="M389.126 41.9509C387.108 42.8973 384.907 43.3879 382.679 43.3879C380.45 43.3879 378.249 42.8973 376.231 41.9509C374.323 40.9896 372.736 39.4917 371.667 37.6413C370.524 35.7265 369.953 33.4721 369.953 30.8782C369.953 26.949 371.135 23.827 373.499 21.5122C375.862 19.1974 378.924 18.0392 382.684 18.0376C386.438 18.0376 389.505 19.1958 391.886 21.5122C394.266 23.8286 395.455 26.9474 395.453 30.8684C395.453 33.4607 394.878 35.7151 393.727 37.6315C392.645 39.4871 391.046 40.9878 389.126 41.9509ZM382.688 38.0797C383.105 38.0773 383.516 37.9775 383.888 37.7883C384.259 37.5992 384.581 37.3258 384.829 36.99C385.452 36.2005 385.887 35.2794 386.102 34.2965C386.618 32.0147 386.611 29.6458 386.082 27.3669C385.853 26.3477 385.414 25.3877 384.792 24.5485C384.196 23.7715 383.499 23.3838 382.701 23.3854C381.902 23.387 381.223 23.7747 380.663 24.5485C380.046 25.3999 379.601 26.3641 379.353 27.3865C379.059 28.5269 378.913 29.7004 378.918 30.8782C378.909 32.0341 379.05 33.1863 379.336 34.3063C379.573 35.288 380.019 36.2068 380.644 36.9998C381.232 37.7197 381.913 38.0797 382.688 38.0797Z" fill="#1DB700"/>
<path d="M404.326 43.1697C403.402 43.1846 402.484 43.0052 401.633 42.6433C400.945 42.3052 400.403 41.7305 400.105 41.0247C399.767 40.2722 399.597 39.2658 399.596 38.0056V22.6208C399.596 21.3361 399.972 20.2873 400.725 19.4743C401.477 18.6614 402.471 18.2533 403.707 18.25C405.161 18.25 406.234 18.5161 406.924 19.0483C407.615 19.5804 407.961 20.6595 407.963 22.2853V36.8694H414.182C415.588 36.8694 416.575 37.0759 417.145 37.4889C417.715 37.9019 418 38.7508 418 40.0355C418 41.3414 417.673 42.1895 417.02 42.5796C416.367 42.9698 415.3 43.164 413.82 43.1624L404.326 43.1697Z" fill="#1DB700"/>
<defs>
<linearGradient id="paint0_linear_402_2" x1="-7.97288" y1="37.6589" x2="28.5258" y2="37.6589" gradientUnits="userSpaceOnUse">
<stop stop-color="#000061"/>
<stop offset="1" stop-color="#235390" stop-opacity="0"/>
</linearGradient>
</defs>
</svg>
