<svg width="143" height="260" viewBox="0 0 143 260" fill="none" xmlns="http://www.w3.org/2000/svg">
<path d="M45.1505 220.326V230.472C45.1505 230.472 46.5217 235.609 35.5588 238.3C24.596 240.991 18.746 240.869 18.8701 247.966L24.4755 248.272C24.4755 248.272 23.6676 250.841 29.6451 249.494C29.6451 249.494 34.2514 248.579 34.6872 248.76C34.6872 248.76 33.7766 250.416 39.088 249.884C39.088 249.884 51.3158 248.76 57.6051 244.05C57.6051 244.05 59.1606 241.788 56.1098 239.097C56.1098 239.097 53.1831 237.994 53.3709 232C53.5587 226.006 53.8669 218.773 53.8669 218.773L45.1505 220.326Z" fill="#FFA103"/>
<path d="M90.5575 220.325V230.471C90.5575 230.471 89.1757 235.619 100.16 238.31C111.144 241 116.976 240.879 116.849 247.976L111.247 248.282C111.247 248.282 112.055 250.851 106.077 249.504C106.077 249.504 101.471 248.588 101.031 248.769C101.031 248.769 101.946 250.426 96.6307 249.894C96.6307 249.894 84.4064 248.769 78.1171 244.06C78.1171 244.06 76.5616 241.797 79.6124 239.107C79.6124 239.107 82.5391 238.004 82.3513 232.01C82.1635 226.016 81.8517 218.783 81.8517 218.783L90.5575 220.325Z" fill="#FFA103"/>
<path d="M67.5613 218.613H59.3055C56.3539 220.829 52.6348 221.818 48.9486 221.367C38.5491 222.285 35.3956 217.106 35.3956 217.106L35.5585 212.129L30.3287 201.119C23.9791 195 25.7508 182.031 25.7508 182.031L16.2548 178.61C21.2367 160.134 40.2782 143.006 40.2782 143.006L67.2743 143.284" fill="#6188AC"/>
<path d="M67.5612 218.613H75.8205C78.7731 220.83 82.4936 221.818 86.181 221.367C96.5805 222.285 99.734 217.106 99.734 217.106L99.5675 212.129L104.797 201.119C111.143 195 109.372 182.031 109.372 182.031L118.878 178.61C113.896 160.134 94.8443 143.006 94.8443 143.006L67.2919 143.284" fill="#6188AC"/>
<path d="M56.4215 149.371C56.4215 149.371 55.4259 152.733 56.4215 154.752H59.412C59.412 154.752 56.0495 156.284 56.4251 157.443C56.6 157.942 56.8522 158.411 57.1727 158.835C57.7266 159.599 58.0686 160.492 58.1648 161.425C58.9337 168.497 61.7435 196.465 59.412 207.022" stroke="#35506F" stroke-linecap="round" stroke-linejoin="round"/>
<path d="M77.4825 149.371C77.4825 149.371 78.4782 152.733 77.4825 154.752H74.492C74.492 154.752 77.8545 156.284 77.4825 157.443C77.3063 157.942 77.0529 158.412 76.7313 158.835C76.1785 159.599 75.8378 160.492 75.7427 161.425C74.9739 168.497 72.164 196.465 74.492 207.022" stroke="#35506F" stroke-linecap="round" stroke-linejoin="round"/>
<path d="M63.0051 150.271C63.0051 150.271 63.1078 150.174 64.0397 164.58C65.0389 180.045 64.3728 206.422 64.3728 206.422H69.8081C69.8081 206.422 69.6841 155.001 70.6833 150.205L63.0051 150.271Z" fill="#DEDBDA"/>
<path d="M25.751 182.031C25.751 182.031 32.5258 160.744 37.4615 156.953" stroke="#35506F" stroke-miterlimit="10" stroke-linecap="round"/>
<path d="M110.021 182.031C110.021 182.031 103.249 160.744 98.3101 156.953" stroke="#35506F" stroke-miterlimit="10" stroke-linecap="round"/>
<path d="M66.9522 155.331C68.0011 155.331 68.8514 154.496 68.8514 153.465C68.8514 152.435 68.0011 151.6 66.9522 151.6C65.9033 151.6 65.053 152.435 65.053 153.465C65.053 154.496 65.9033 155.331 66.9522 155.331Z" fill="#528B7F"/>
<path d="M66.6933 165.171C67.7422 165.171 68.5925 164.335 68.5925 163.305C68.5925 162.275 67.7422 161.439 66.6933 161.439C65.6444 161.439 64.7941 162.275 64.7941 163.305C64.7941 164.335 65.6444 165.171 66.6933 165.171Z" fill="#528B7F"/>
<path d="M66.6933 176.366C67.7422 176.366 68.5925 175.531 68.5925 174.5C68.5925 173.47 67.7422 172.635 66.6933 172.635C65.6444 172.635 64.7941 173.47 64.7941 174.5C64.7941 175.531 65.6444 176.366 66.6933 176.366Z" fill="#528B7F"/>
<path d="M66.6933 187.559C67.7422 187.559 68.5925 186.724 68.5925 185.694C68.5925 184.663 67.7422 183.828 66.6933 183.828C65.6444 183.828 64.7941 184.663 64.7941 185.694C64.7941 186.724 65.6444 187.559 66.6933 187.559Z" fill="#528B7F"/>
<path d="M66.6933 198.753C67.7422 198.753 68.5925 197.917 68.5925 196.887C68.5925 195.857 67.7422 195.021 66.6933 195.021C65.6444 195.021 64.7941 195.857 64.7941 196.887C64.7941 197.917 65.6444 198.753 66.6933 198.753Z" fill="#528B7F"/>
<path d="M30.7114 201.91C30.7114 201.91 40.5475 206.087 55.4327 206.992" stroke="#35506F" stroke-linecap="round" stroke-linejoin="round"/>
<path d="M39.733 211.701C39.733 211.701 46.0223 216.898 54.9265 218.429" stroke="#35506F" stroke-linecap="round" stroke-linejoin="round"/>
<path d="M81.1427 218.799C81.1427 218.799 84.8808 218.983 94.6071 213.414" stroke="#35506F" stroke-linecap="round" stroke-linejoin="round"/>
<path d="M89.3633 218.798C92.1111 218.256 94.7716 217.351 97.2718 216.107" stroke="#35506F" stroke-linecap="round" stroke-linejoin="round"/>
<path d="M39.733 215.803C42.6654 217.515 45.8963 218.676 49.2608 219.228" stroke="#35506F" stroke-linecap="round" stroke-linejoin="round"/>
<path d="M81.476 157.974V165.068C81.476 165.068 95.2593 165.367 98.7458 163.926L96.2656 156.965L81.476 157.974Z" stroke="#35506F" stroke-linecap="round" stroke-linejoin="round"/>
<path d="M13.9307 184.83C13.9307 184.83 12.5453 191.067 12.9244 196.02C12.9789 196.765 13.2291 197.482 13.6505 198.103C14.0718 198.724 14.6499 199.227 15.3283 199.563C16.0067 199.898 16.7622 200.055 17.5209 200.018C18.2795 199.981 19.0154 199.752 19.6566 199.352C22.2042 197.771 25.1345 194.792 26.8955 189.177L13.9307 184.83Z" fill="#FFA103"/>
<path d="M121.855 183.525C121.855 183.525 123.237 189.763 122.861 194.716C122.807 195.46 122.556 196.178 122.135 196.799C121.714 197.419 121.136 197.922 120.457 198.258C119.779 198.593 119.023 198.751 118.265 198.714C117.506 198.677 116.77 198.447 116.129 198.047C113.578 196.467 110.651 193.487 108.89 187.876L121.855 183.525Z" fill="#FFA103"/>
<path d="M13.3789 179.755L11.9611 183.329C11.5036 184.483 12.0845 185.782 13.2588 186.232L26.2698 191.212C27.4441 191.662 28.7669 191.091 29.2245 189.938L30.6422 186.364C31.0998 185.21 30.5188 183.911 29.3446 183.461L16.3336 178.481C15.1593 178.031 13.8365 178.602 13.3789 179.755Z" fill="#6188AC"/>
<path d="M105.445 185.777L106.863 189.351C107.32 190.504 108.643 191.075 109.818 190.626L122.829 185.645C124.003 185.195 124.584 183.896 124.126 182.742L122.708 179.169C122.251 178.015 120.928 177.444 119.754 177.894L106.743 182.874C105.569 183.324 104.988 184.623 105.445 185.777Z" fill="#6188AC"/>
<path d="M86.4577 135.843C86.4577 135.843 82.7763 129.88 82.142 127.256H52.9313C52.3112 129.866 48.6794 135.843 48.6794 135.843L51.227 139.797L67.2886 144.068V144.151L67.4304 144.113L67.5685 144.151V144.078L83.8676 139.807L86.4577 135.843Z" fill="#D18405"/>
<path d="M87.099 136.686C87.099 136.686 83.6443 131.388 82.755 128.973L68.8583 130.696C67.8172 130.826 66.7635 130.826 65.7225 130.696L52.3254 128.973C51.4431 131.249 48.0735 136.557 48.0735 136.557L51.2163 140.24L67.278 144.068V144.152L67.4197 144.121L67.5579 144.152V144.086L83.8569 140.257L87.099 136.686Z" fill="#FFA103"/>
<path d="M40.2783 143.006L42.677 140.98C43.4913 140.295 44.171 139.469 44.6825 138.544L45.2707 137.478C45.5257 137.012 45.8986 136.618 46.3534 136.334C46.8082 136.05 47.3298 135.885 47.8679 135.856C51.234 135.686 59.1391 137.19 62.1438 143.26C62.1579 143.253 50.9435 147.13 40.2783 143.006Z" fill="#6188AC"/>
<path d="M94.8444 143.007L92.2649 140.828C91.5686 140.241 90.9885 139.533 90.5535 138.739L89.9051 137.559C89.6278 137.059 89.2237 136.638 88.7321 136.337C88.2404 136.036 87.6778 135.865 87.0989 135.84C83.6725 135.69 75.9659 137.232 73.0037 143.222C73.0037 143.226 84.1934 147.131 94.8444 143.007Z" fill="#6188AC"/>
<path d="M70.6833 150.205C70.6833 150.205 72.7596 142.652 73.7022 142.154C73.7022 142.154 69.8435 142.06 67.2889 143.285C67.2889 143.285 63.9227 142.241 61.4354 142.154C61.4354 142.154 62.6613 146.769 63.005 150.271" fill="#DEDBDA"/>
<path d="M26.7892 50.4999C26.7892 50.4999 32.2387 42.3168 38.2481 34.353C43.2087 27.7954 46.6704 23.4932 52.733 16.4101C55.4258 13.2774 59.7061 10.0787 62.8596 5.27186C62.976 5.09955 63.1339 4.9582 63.3194 4.86042C63.5049 4.76264 63.7121 4.71146 63.9226 4.71146C64.1331 4.71146 64.3403 4.76264 64.5258 4.86042C64.7113 4.9582 64.8692 5.09955 64.9856 5.27186C66.0096 6.80337 65.9777 8.82912 66.8281 11.8852C66.8281 11.8852 69.2127 5.03866 76.5402 2.18798C76.5402 2.18798 84.2255 -0.909832 85.3558 0.266639C86.4861 1.44311 85.0228 7.33591 85.0228 7.33591C85.0228 7.33591 93.7676 1.50925 97.5907 1.51621C97.8579 1.52013 98.1169 1.60705 98.3307 1.76451C98.5445 1.92198 98.702 2.14189 98.7807 2.39273C98.8594 2.64356 98.8552 2.91242 98.7687 3.16078C98.6823 3.40913 98.518 3.6242 98.2994 3.77517L98.2604 3.79954C96.8927 4.68363 94.1857 7.8058 92.5912 14.8855C92.5912 14.8855 90.1463 21.6276 95.1459 32.2889C100.606 43.9283 103.763 47.6527 103.763 47.6527L26.7892 50.4999Z" fill="#FFA103"/>
<path d="M114.003 78.4472C114.003 51.1552 92.9562 29.0215 66.9912 29.0215H66.2825H65.5738C39.6088 29.0215 18.5617 51.1447 18.5617 78.4472C18.5605 81.4698 18.8225 84.4869 19.3448 87.4657C18.2818 96.9923 16.9956 106.063 25.1806 115.273C36.7777 128.322 52.7685 127.883 66.2825 127.866C79.7965 127.849 95.7873 128.322 107.384 115.273C115.569 106.063 114.29 96.9923 113.224 87.4657C113.743 84.4866 114.004 81.4696 114.003 78.4472Z" fill="#FFA103"/>
<path d="M99.2314 85.6173C99.2314 93.3757 92.6125 98.6872 85.5969 98.6872C78.5812 98.6872 72.8765 92.3976 72.8765 84.6322C72.8765 76.8668 75.084 68.6211 82.089 68.6211C85.4445 68.6211 90.1641 70.2779 93.4877 73.327C97.1408 76.6615 99.2314 81.5692 99.2314 85.6173Z" fill="#C7C6C5"/>
<path d="M93.4665 86.6646C93.4665 92.1711 89.165 96.5532 84.254 96.5532C79.343 96.5532 74.2762 92.4356 74.2762 86.9257C74.2762 81.4157 77.6883 75.9023 82.6135 75.9023C87.5386 75.9023 93.4665 81.1512 93.4665 86.6646Z" fill="#080808"/>
<path d="M100.553 71.2304C100.004 72.306 95.2382 70.2558 91.0607 68.2057C86.8832 66.1556 81.5718 65.0731 82.1388 62.7132C82.4187 61.5437 86.0611 58.5747 93.4949 63.9558C97.2508 66.6742 101.099 70.1584 100.553 71.2304Z" fill="#D16A1D"/>
<path d="M29.5213 71.2304C30.0705 72.306 34.8362 70.2558 39.0137 68.2057C43.1912 66.1556 48.5025 65.0731 47.9356 62.7132C47.6557 61.5437 44.0132 58.5747 36.5794 63.9558C32.8378 66.6742 28.9756 70.1584 29.5213 71.2304Z" fill="#D16A1D"/>
<path d="M107.044 110.158C107.044 110.158 104.014 106.291 93.7461 104.151C88.6925 103.085 83.8789 101.123 79.5411 98.3623C78.1807 97.4991 76.9741 96.4219 75.9695 95.174C71.4837 89.5562 66.7216 88.9088 65.733 88.8496H65.5452C64.5495 88.9227 59.7342 89.5666 55.2307 95.3306C54.3532 96.4361 53.2976 97.3932 52.1056 98.1639C47.712 101.026 42.8126 103.057 37.6597 104.151C27.4373 106.291 24.422 110.158 24.422 110.158C24.422 110.158 20.2303 113.869 37.5782 113.869C51.5493 113.869 57.2043 116.218 58.8732 117.134C59.3752 117.4 59.9151 117.59 60.4748 117.698C61.35 117.875 62.661 118.119 63.9224 118.272C64.934 118.399 65.958 118.399 66.9696 118.272C68.3869 118.091 69.8999 117.833 70.8672 117.659C71.4179 117.564 71.9492 117.382 72.4404 117.12C74.1164 116.204 79.7962 113.855 93.8311 113.855C111.253 113.869 107.044 110.158 107.044 110.158Z" fill="#D16A1D"/>
<path d="M75.7527 99.6749C76.3704 99.0055 75.7392 97.4549 74.343 96.2117C72.9467 94.9684 71.3141 94.5033 70.6964 95.1727C70.0787 95.8421 70.7099 97.3926 72.1061 98.6359C73.5024 99.8791 75.135 100.344 75.7527 99.6749Z" fill="#B25B19"/>
<path d="M58.8752 98.6418C60.2714 97.3986 60.9026 95.8481 60.2849 95.1786C59.6672 94.5092 58.0346 94.9744 56.6383 96.2177C55.2421 97.4609 54.6109 99.0114 55.2286 99.6808C55.8463 100.35 57.4789 99.8851 58.8752 98.6418Z" fill="#B25B19"/>
<path d="M30.028 85.6181C30.028 93.3766 36.6468 98.6881 43.6624 98.6881C50.6781 98.6881 56.3686 92.3985 56.3686 84.6401C56.3686 76.8816 54.1612 68.6289 47.1561 68.6289C43.8006 68.6289 39.081 70.2857 35.7574 73.3348C32.1291 76.6623 30.028 81.5701 30.028 85.6181Z" fill="#C7C6C5"/>
<path d="M35.793 86.6666C35.793 92.173 40.0946 96.5552 45.0055 96.5552C49.9165 96.5552 54.9834 92.4375 54.9834 86.9276C54.9834 81.4177 51.5677 75.9043 46.6461 75.9043C41.7245 75.9043 35.793 81.1532 35.793 86.6666Z" fill="#080808"/>
<path d="M40.9979 83.658C41.8785 83.658 42.5924 82.9567 42.5924 82.0917C42.5924 81.2267 41.8785 80.5254 40.9979 80.5254C40.1173 80.5254 39.4034 81.2267 39.4034 82.0917C39.4034 82.9567 40.1173 83.658 40.9979 83.658Z" fill="white"/>
<path d="M78.581 83.6561C79.4616 83.6561 80.1755 82.9548 80.1755 82.0897C80.1755 81.2247 79.4616 80.5234 78.581 80.5234C77.7004 80.5234 76.9866 81.2247 76.9866 82.0897C76.9866 82.9548 77.7004 83.6561 78.581 83.6561Z" fill="white"/>
<path d="M35.1479 113.041C35.1479 113.041 46.628 111.725 51.989 110.82C57.35 109.915 60.1173 106.866 66.279 107.36H66.3463C72.5045 106.866 75.2045 109.915 80.5655 110.824C85.9264 111.732 97.4102 113.044 97.4102 113.044C97.4102 113.044 63.7031 110.963 35.1479 113.041Z" fill="#3C1808"/>
<rect y="250" width="143" height="10" rx="5" fill="#E7E7E7"/>
</svg>
